<svg t="1561086825736" class="icon" viewBox="0 0 1024 1024" version="1.1" xmlns="http://www.w3.org/2000/svg" p-id="9209" width="200" height="200"><path d="M128 64a64 64 0 0 0-64 64v768a64 64 0 0 0 64 64h768a64 64 0 0 0 64-64V128a64 64 0 0 0-64-64H128z m0-64h768a128 128 0 0 1 128 128v768a128 128 0 0 1-128 128H128a128 128 0 0 1-128-128V128a128 128 0 0 1 128-128z" p-id="9210"></path><path d="M224 64v192a64 64 0 0 0 64 64h448a64 64 0 0 0 64-64V64h-576z m-64-64h704v256a128 128 0 0 1-128 128h-448a128 128 0 0 1-128-128V0z" p-id="9211"></path><path d="M672 160a32 32 0 1 1 64 0v64a32 32 0 1 1-64 0v-64z" p-id="9212"></path></svg>