<?xml version="1.0" standalone="no"?><!DOCTYPE svg PUBLIC "-//W3C//DTD SVG 1.1//EN" "http://www.w3.org/Graphics/SVG/1.1/DTD/svg11.dtd"><svg t="1561084412251" class="icon" viewBox="0 0 1032 1024" version="1.1" xmlns="http://www.w3.org/2000/svg" p-id="4197" xmlns:xlink="http://www.w3.org/1999/xlink" width="201.5625" height="200"><defs><style type="text/css"></style></defs><path d="M584.082556 127.991533H464.072149V31.992239A32.014816 32.014816 0 0 0 432.07991 0c-5.700805 0-11.40161 1.523978-16.458957 4.560644L15.616367 244.55888a31.992239 31.992239 0 0 0 0 54.885768l399.993297 239.998236a31.913218 31.913218 0 0 0 32.218014 0.406394 31.98095 31.98095 0 0 0 16.233182-27.849278v-95.999294h112.006703c158.798457 0 288.009172 129.188138 288.009172 287.986594S734.888597 991.985184 576.078852 991.985184a15.984831 15.984831 0 1 0 0 31.992239h8.003704c247.03111 0 447.992945-200.973123 447.992944-447.992945S831.113666 127.991533 584.082556 127.991533z m218.391621 801.939544c57.809547-57.933723 93.606085-137.846588 93.606086-225.955066 0-176.44273-143.547393-319.990122-320.001411-319.990122H432.068621v128.002822L32.075324 272.001764l399.993297-239.998236v128.002822h152.013935c229.375548 0 416.000706 186.613868 416.000705 415.989417 0 149.338507-79.100077 280.547327-197.609084 353.93531z" p-id="4198" fill="#ffffff"></path></svg>